<?xml version="1.0" encoding="UTF-8" standalone="no"?>
<svg
   width="512"
   height="512"
   version="1.1"
   id="svg8"
   sodipodi:docname="enterprise.svg"
   inkscape:version="1.1 (c68e22c387, 2021-05-23)"
   inkscape:export-filename="/home/dominik/Pictures/enterprise.png"
   inkscape:export-xdpi="96"
   inkscape:export-ydpi="96"
   xmlns:inkscape="http://www.inkscape.org/namespaces/inkscape"
   xmlns:sodipodi="http://sodipodi.sourceforge.net/DTD/sodipodi-0.dtd"
   xmlns="http://www.w3.org/2000/svg"
   xmlns:svg="http://www.w3.org/2000/svg">
  <defs
     id="defs12" />
  <sodipodi:namedview
     id="namedview10"
     pagecolor="#ffffff"
     bordercolor="#666666"
     borderopacity="1.0"
     inkscape:pageshadow="2"
     inkscape:pageopacity="0.0"
     inkscape:pagecheckerboard="0"
     showgrid="false"
     inkscape:zoom="0.79608439"
     inkscape:cx="-110.54105"
     inkscape:cy="60.295116"
     inkscape:window-width="1920"
     inkscape:window-height="1030"
     inkscape:window-x="0"
     inkscape:window-y="0"
     inkscape:window-maximized="1"
     inkscape:current-layer="svg8"
     width="512px" />
  <path
     fill="#e15c64"
     d="M 76.242727,364.62438 C 56.501808,360.90756 26.948002,338.2339 16.835677,319.04738 4.791012,296.19442 2.2204056,261.65425 9.325148,218.13043 23.259662,132.76719 73.699042,64.098403 150.25003,26.273557 171.19464,15.92454 213.44947,2.5947103 220.64613,4.0661917 221.88218,4.3188262 218.13254,6.8804887 210.55227,10.961841 147.18596,45.079469 101.98101,102.72613 93.187188,160.6291 c -0.870021,5.72874 -1.584791,13.41385 -1.588352,17.07809 l -0.006,6.66225 13.430944,1.88057 c 24.21107,3.38998 41.16046,11.35461 56.22748,26.42159 19.51153,19.51157 28.08504,44.23926 24.86225,71.70778 -2.66051,22.676 -10.66385,39.33806 -26.43212,55.02871 -13.76678,13.69898 -26.97767,20.83705 -44.51587,24.05279 -8.7715,1.60826 -32.752518,2.32516 -38.922344,1.1635 z"
     stroke-width="0.328922"
     stroke="#00000000"
     id="path2"
     inkscape:export-filename="/home/dominik/Pictures/path2.png"
     inkscape:export-xdpi="368.81796"
     inkscape:export-ydpi="368.81796" />
  <path
     fill="#f47e5f"
     d="M 230.28755,502.52675 C 178.69587,496.70303 128.79046,473.90808 87.999001,437.53468 78.745707,429.28361 53.242306,401.83807 54.828388,401.83807 c 0.371936,0 3.287958,1.92935 6.47998,4.28747 20.961773,15.48532 59.270542,33.46679 85.333572,40.05408 22.76164,5.75282 59.79262,6.53451 86.58512,1.82764 19.873,-3.49126 48.89715,-13.76936 47.74915,-16.90906 -11.19549,-30.61871 -13.93503,-44.67773 -11.81304,-60.62334 3.72671,-28.00466 19.52155,-54.06555 41.15511,-67.90436 14.69692,-9.40154 28.7762,-12.97729 50.98958,-12.95005 18.34583,0.0225 24.10011,1.30226 37.78908,8.40443 18.28516,9.48677 33.44037,24.82552 42.19097,42.7019 5.8582,11.96754 7.83624,19.81155 8.52478,33.80493 1.66594,33.8585 -14.36438,62.35619 -47.31915,84.12109 -26.15573,17.27448 -63.69761,33.26912 -92.75999,39.52026 -24.66285,5.3048 -55.87015,7.01498 -79.446,4.35369 z"
     stroke-width="0.328922"
     stroke="#000000"
     id="path4"
     inkscape:export-filename="/home/dominik/Pictures/path2.png"
     inkscape:export-xdpi="368.81796"
     inkscape:export-ydpi="368.81796" />
  <path
     fill="#f7b26a"
     d="m 488.89739,324.26746 c 0.14481,-26.6344 -0.65654,-35.69518 -4.92097,-55.64251 -5.07933,-23.75931 -17.15889,-52.54447 -30.23316,-72.0448 -12.00734,-17.90894 -31.23926,-38.06436 -46.23495,-48.4551 -4.1077,-2.84629 -4.87813,-3.03362 -7.25186,-1.76328 -1.4607,0.78176 -4.9275,4.51557 -7.70396,8.29735 -12.2001,16.61745 -29.91378,28.37311 -52.78151,35.02836 -16.24278,4.72717 -21.31426,5.25118 -31.80174,3.28599 -51.45674,-9.6421 -83.57043,-46.91153 -81.19843,-94.234443 1.02611,-20.471136 7.95236,-38.984793 20.48489,-54.755708 18.3824,-23.132305 39.94514,-32.516625 74.55283,-32.44614 13.79334,0.02776 22.90672,2.378643 37.85473,9.763673 30.07716,14.859543 66.06549,43.503359 92.39556,73.539358 24.6878,28.16267 45.57029,72.81655 52.30119,111.83787 4.32049,25.04717 4.88571,68.12999 1.18713,90.48606 -2.43188,14.69932 -13.94701,53.14294 -15.91811,53.14294 -0.48025,0 -0.80949,-11.71786 -0.73164,-26.03962 z"
     stroke-width="0.328922"
     stroke="#000000"
     id="path6"
     inkscape:export-filename="/home/dominik/Pictures/path2.png"
     inkscape:export-xdpi="368.81796"
     inkscape:export-ydpi="368.81796" />
</svg>
